<?xml version="1.0" encoding="UTF-8" standalone="no"?>
<svg width="2000px" height="2000px" viewBox="0 0 2000 2000" version="1.1" xmlns="http://www.w3.org/2000/svg" xmlns:xlink="http://www.w3.org/1999/xlink" xmlns:sketch="http://www.bohemiancoding.com/sketch/ns">
    <!-- Generator: Sketch 3.5.2 (25235) - http://www.bohemiancoding.com/sketch -->
    <title>MBG-back</title>
    <desc>Created with Sketch.</desc>
    <defs></defs>
    <g id="Page-1" stroke="none" stroke-width="1" fill="none" fill-rule="evenodd" sketch:type="MSPage">
        <g id="MBG-back" sketch:type="MSLayerGroup">
            <rect id="Rectangle-466" fill="#DF3A2C" sketch:type="MSShapeGroup" x="0" y="0" width="2000" height="2000"></rect>
            <path d="M1800,1500 L1300,1500 L1300,1400 L1900,1400 L1900,1800 L2000,1800 L2000,1900 L1800,1900 L1800,1500 Z" id="1" fill="#FFFFFF" sketch:type="MSShapeGroup"></path>
            <path d="M1600,1900 L1300,1900 L1300,1600 L1700,1600 L1700,1700 L1400,1700 L1400,1800 L1700,1800 L1700,2000 L1600,2000 L1600,1900 Z" id="Rectangle-455" fill="#FFFFFF" sketch:type="MSShapeGroup"></path>
            <path d="M700,1500 L600,1500 L600,1700 L500,1700 L500,1400 L800,1400 L800,1800 L1100,1800 L1100,1600 L1000,1600 L1000,1700 L900,1700 L900,1500 L1200,1500 L1200,1900 L800,1900 L800,2000 L700,2000 L700,1500 Z" id="Rectangle-456" fill="#FFFFFF" sketch:type="MSShapeGroup"></path>
            <path d="M100,1800 L600,1800 L600,2000 L500,2000 L500,1900 L100,1900 L100,1800 Z" id="Rectangle-457" fill="#FFFFFF" sketch:type="MSShapeGroup"></path>
            <path d="M0,1300 L400,1300 L400,1700 L100,1700 L100,1500 L200,1500 L200,1600 L300,1600 L300,1400 L0,1400 L0,1300 Z" id="Rectangle-458" fill="#FFFFFF" sketch:type="MSShapeGroup"></path>
            <path d="M500,1200 L500,900 L400,900 L400,1100 L300,1100 L300,900 L200,900 L200.000007,1200 L1.11022302e-16,1200 L0,1100 L100,1100 L100,800 L600,800 L600,1200 L700,1200 L700,800 L1200,800 L1200,1000 L1300,1000 L1300,1300 L900,1300 L900,1200 L1200,1200 L1200,1100 L900,1100 L900,1000 L1100,1000 L1100,900 L800,900 L800,1200 L800,1300 L500,1300 L500,1200 Z" id="Rectangle-459" fill="#FFFFFF" sketch:type="MSShapeGroup"></path>
            <path d="M100,500 L0,500 L0,400 L100,400 L100,100 L300,100 L300,200 L200,200 L200,600 L400,600 L400,700 L100,700 L100,500 Z" id="Rectangle-460" fill="#FFFFFF" sketch:type="MSShapeGroup"></path>
            <path d="M1400,800 L2000,800 L2000,900 L1500,900 L1500,1200 L1800,1200 L1800,1100 L1600,1100 L1600,1000 L1900,1000 L1900,1300 L1400,1300 L1400,800 Z" id="Rectangle-461" fill="#FFFFFF" sketch:type="MSShapeGroup"></path>
            <path d="M1300,300 L1700,300 L1700,500 L1600,500 L1600,400 L1400,400 L1400,600 L1800,600 L1800,0 L1900,0 L1900,700 L1300,700 L1300,300 Z" id="Rectangle-462" fill="#FFFFFF" sketch:type="MSShapeGroup"></path>
            <path d="M300,400 L500,400 L500,200 L400,200 L400,0 L500,0 L500,100 L600,100 L600,500 L300,500 L300,400 Z" id="Rectangle-464" fill="#FFFFFF" sketch:type="MSShapeGroup"></path>
            <path d="M700,0 L800,0 L800,100 L1100,100 L1100,0 L1200,0 L1200,600 L900,600 L900,400 L800,400 L800,700 L600,700 L600,600 L700,600 L700,300 L1000,300 L1000,500 L1100,500 L1100,200 L700,200 L700,0 Z" id="Rectangle-465" fill="#FFFFFF" sketch:type="MSShapeGroup"></path>
            <path d="M1300,0 L1400,0 L1400,100 L1600,100 L1600,0 L1700,3.90798505e-14 L1700,200 L1300,200 L1300,0 Z" id="Rectangle-403" fill="#FFFFFF" sketch:type="MSShapeGroup"></path>
        </g>
    </g>
</svg>