<?xml version="1.0" encoding="UTF-8" standalone="no"?>
<svg width="80px" height="80px" viewBox="0 0 80 80" version="1.1" xmlns="http://www.w3.org/2000/svg" xmlns:xlink="http://www.w3.org/1999/xlink" xmlns:sketch="http://www.bohemiancoding.com/sketch/ns">
    <!-- Generator: Sketch 3.3.3 (12072) - http://www.bohemiancoding.com/sketch -->
    <title>logo copy 3</title>
    <desc>Created with Sketch.</desc>
    <defs></defs>
    <g id="Stickersheet" stroke="none" stroke-width="1" fill="none" fill-rule="evenodd" sketch:type="MSPage">
        <g id="logo-copy-3" sketch:type="MSLayerGroup">
            <rect id="Rectangle-2319-Copy" fill="#FFFFFF" sketch:type="MSShapeGroup" x="0" y="0" width="80" height="80" rx="11.2"></rect>
            <g id="This-one-Copy" transform="translate(4.000000, 0.000000)" sketch:type="MSShapeGroup">
                <rect id="Rectangle-2319" fill="#FB8C00" x="0" y="4" width="72" height="72" rx="8"></rect>
                <path d="M29.6,0 L42.4,0 L42.4,50.88 C42.4,50.88 38.1865625,45.12 36,45.12 C33.9198958,45.12 29.6,50.88 29.6,50.88 L29.6,0 Z" id="Rectangle-2284" fill="#FFFFFF"></path>
                <circle id="Oval-922" stroke="#FFFFFF" stroke-width="1.6" cx="36" cy="50.88" r="6.4"></circle>
                <path d="M10.4,0 L23.2,0 L23.2,39.68 C23.2,39.68 18.9598958,33.44 16.8,33.44 C14.6932292,33.44 10.4,39.68 10.4,39.68 L10.4,0 Z" id="Rectangle-2284-Copy-3" fill="#FFFFFF"></path>
                <circle id="Oval-922-Copy-3" stroke="#FFFFFF" stroke-width="1.6" cx="16.8" cy="39.68" r="6.4"></circle>
                <path d="M48.8,0 L61.6,0 L61.6,31.68 C61.6,31.68 57.333125,25.44 55.2,25.44 C53.0664583,25.44 48.8,31.68 48.8,31.68 L48.8,0 Z" id="Rectangle-2284-Copy" fill="#FFFFFF"></path>
                <circle id="Oval-922-Copy" stroke="#FFFFFF" stroke-width="1.6" cx="55.2" cy="31.68" r="6.4"></circle>
                <g id="Group-Copy-21" transform="translate(12.000000, 26.880000)">
                    <path d="M5.12,12.48 L43.2,4.8" id="Line-Copy-28" stroke="#FFFFFF" stroke-width="2.88" stroke-linecap="square"></path>
                    <circle id="Oval-978" fill="#FFFFFF" cx="4.8" cy="12.8" r="2.4"></circle>
                    <circle id="Oval-978-Copy" fill="#FFFFFF" cx="24" cy="24" r="2.4"></circle>
                    <circle id="Oval-978-Copy-2" fill="#FFFFFF" cx="43.2" cy="4.8" r="2.4"></circle>
                    <path d="M5.12,13.12 L23.84,24" id="Line" stroke="#FFFFFF" stroke-width="2.88" stroke-linecap="square"></path>
                </g>
            </g>
        </g>
    </g>
</svg>