<?xml version="1.0" encoding="UTF-8" standalone="no"?>
<svg width="851px" height="315px" viewBox="0 0 851 315" version="1.1" xmlns="http://www.w3.org/2000/svg" xmlns:xlink="http://www.w3.org/1999/xlink" xmlns:sketch="http://www.bohemiancoding.com/sketch/ns">
    <!-- Generator: Sketch 3.5.2 (25235) - http://www.bohemiancoding.com/sketch -->
    <title>Facebook1b</title>
    <desc>Created with Sketch.</desc>
    <defs></defs>
    <g id="Stickersheet" stroke="none" stroke-width="1" fill="none" fill-rule="evenodd" sketch:type="MSPage">
        <g id="Facebook1b" sketch:type="MSArtboardGroup">
            <rect id="Rectangle-2395" fill="#EF6C00" sketch:type="MSShapeGroup" x="0" y="0" width="851" height="315"></rect>
            <g id="Group" sketch:type="MSLayerGroup" transform="translate(47.000000, 25.000000)">
                <g id="Lines" transform="translate(3.000000, 4.000000)" stroke="#FFCB87" stroke-linecap="square" sketch:type="MSShapeGroup">
                    <path d="M8.5,221.5 L30.5,184.5" id="Line"></path>
                    <path d="M0.5,190.5 L8.5,221.5" id="Line"></path>
                    <path d="M537.5,208.5 L595.5,176.5" id="Line"></path>
                    <path d="M248.5,81.5 L270.5,18.5" id="Line"></path>
                    <path d="M191.5,34.5 L270.5,18.5" id="Line"></path>
                    <path d="M300.5,224.5 L389.5,198.5" id="Line"></path>
                    <path d="M389.5,198.5 L371.5,256.5" id="Line"></path>
                    <path d="M143.5,174.5 L284.5,146.5" id="Line"></path>
                    <path d="M143.5,175.5 L389.5,198.5" id="Line"></path>
                    <path d="M703.5,227.5 L768.5,201.5" id="Line"></path>
                    <path d="M715.5,187.5 L703.5,227.5" id="Line"></path>
                    <path d="M646.5,88.5 L740.5,153.5" id="Line"></path>
                    <path d="M646.5,88.5 L616.5,96.5" id="Line"></path>
                    <path d="M389.5,198.5 L571.5,64.5" id="Line"></path>
                    <path d="M741.5,153.5 L768.5,201.5" id="Line"></path>
                    <path d="M773.5,226.5 L768.5,200.5" id="Line"></path>
                    <path d="M684.5,180.5 L741.5,153.5" id="Line"></path>
                    <path d="M715.5,187.5 L740.5,154.5" id="Line"></path>
                    <path d="M702.5,227.5 L606.5,198.5" id="Line"></path>
                    <path d="M436.5,70.5 L497.5,53.5" id="Line"></path>
                    <path d="M571.5,63.5 L651.5,3.5" id="Line"></path>
                    <path d="M191.5,34.5 L248.5,81.5" id="Line"></path>
                    <path d="M108.5,91.5 L190.5,34.5" id="Line"></path>
                    <path d="M677.5,79.5 L651.5,4.5" id="Line"></path>
                    <path d="M0.5,190.5 L31.5,183.5" id="Line"></path>
                    <path d="M40.5,34.5 L0.5,30.5" id="Line"></path>
                    <path d="M290.5,0.5 L270.5,18.5" id="Line"></path>
                    <path d="M685.5,180.5 L715.5,187.5" id="Line"></path>
                    <path d="M646.5,88.5 L571.5,64.5" id="Line"></path>
                    <path d="M389.5,198.5 L436.5,215.5" id="Line"></path>
                    <path d="M606.5,198.5 L595.5,176.5" id="Line"></path>
                    <path d="M537.5,208.5 L606.5,198.5" id="Line"></path>
                    <path d="M436.5,70.5 L455.5,32.5" id="Line"></path>
                    <path d="M571.5,64.5 L436.5,71.5" id="Line"></path>
                    <path d="M548.5,41.5 L571.5,63.5" id="Line"></path>
                    <path d="M741.5,154.5 L677.5,79.5" id="Line"></path>
                    <path d="M143.5,174.5 L138.5,241.5" id="Line"></path>
                    <path d="M300.5,223.5 L371.5,256.5" id="Line"></path>
                    <path d="M371.5,256.5 L436.5,215.5" id="Line"></path>
                    <path d="M283.5,147.5 L302.5,224.5" id="Line"></path>
                    <path d="M143.5,174.5 L31.5,183.5" id="Line"></path>
                    <path d="M436.5,215.5 L536.5,208.5" id="Line"></path>
                    <path d="M283.5,146.5 L248.5,81.5" id="Line"></path>
                    <path d="M41.5,34.5 L108.5,91.5" id="Line"></path>
                    <path d="M48.5,11.5 L41.5,33.5" id="Line"></path>
                    <path d="M108.5,91.5 L143.5,174.5" id="Line"></path>
                </g>
                <circle id="Oval-1182-Copy-3" stroke="#FFFFFF" fill="#EF6C00" sketch:type="MSShapeGroup" cx="392.5" cy="202.5" r="3.5"></circle>
                <circle id="Oval-1182-Copy-5" stroke="#FFFFFF" fill="#EF6C00" sketch:type="MSShapeGroup" cx="654.5" cy="8.5" r="3.5"></circle>
                <circle id="Oval-1182-Copy-9" stroke="#FFFFFF" fill="#EF6C00" sketch:type="MSShapeGroup" cx="680.5" cy="83.5" r="3.5"></circle>
                <circle id="Oval-1182-Copy-19" stroke="#FFFFFF" fill="#EF6C00" sketch:type="MSShapeGroup" cx="776.5" cy="230.5" r="3.5"></circle>
                <path d="M609.5,206 C611.432997,206 613,204.432997 613,202.5 C613,200.567003 611.432997,199 609.5,199 C607.567003,199 606,200.567003 606,202.5 C606,204.432997 607.567003,206 609.5,206 Z" id="Oval-1182-Copy-10" stroke="#FFFFFF" fill="#EF6C00" sketch:type="MSShapeGroup"></path>
                <path d="M688.5,188 C690.432997,188 692,186.432997 692,184.5 C692,182.567003 690.432997,181 688.5,181 C686.567003,181 685,182.567003 685,184.5 C685,186.432997 686.567003,188 688.5,188 Z" id="Oval-1182-Copy-23" stroke="#FFFFFF" fill="#EF6C00" sketch:type="MSShapeGroup"></path>
                <path d="M3.5,198 C5.43299662,198 7,196.432997 7,194.5 C7,192.567003 5.43299662,191 3.5,191 C1.56700338,191 0,192.567003 0,194.5 C0,196.432997 1.56700338,198 3.5,198 Z" id="Oval-1182-Copy-37" stroke="#FFFFFF" fill="#EF6C00" sketch:type="MSShapeGroup"></path>
                <path d="M718.5,195 C720.432997,195 722,193.432997 722,191.5 C722,189.567003 720.432997,188 718.5,188 C716.567003,188 715,189.567003 715,191.5 C715,193.432997 716.567003,195 718.5,195 Z" id="Oval-1182-Copy-24" stroke="#FFFFFF" fill="#EF6C00" sketch:type="MSShapeGroup"></path>
                <path d="M706.5,235 C708.432997,235 710,233.432997 710,231.5 C710,229.567003 708.432997,228 706.5,228 C704.567003,228 703,229.567003 703,231.5 C703,233.432997 704.567003,235 706.5,235 Z" id="Oval-1182-Copy-26" stroke="#FFFFFF" fill="#EF6C00" sketch:type="MSShapeGroup"></path>
                <circle id="Oval-1182-Copy-22" stroke="#FFFFFF" fill="#EF6C00" sketch:type="MSShapeGroup" cx="649.5" cy="92.5" r="3.5"></circle>
                <circle id="Oval-1182-Copy-18" stroke="#FFFFFF" fill="#EF6C00" sketch:type="MSShapeGroup" cx="771.5" cy="205.5" r="3.5"></circle>
                <circle id="Oval-1182-Copy-15" stroke="#FFFFFF" fill="#EF6C00" sketch:type="MSShapeGroup" cx="141.5" cy="245.5" r="3.5"></circle>
                <circle id="Oval-1182-Copy-12" stroke="#FFFFFF" fill="#EF6C00" sketch:type="MSShapeGroup" cx="500.5" cy="57.5" r="3.5"></circle>
                <circle id="Oval-1182-Copy-21" stroke="#FFFFFF" fill="#EF6C00" sketch:type="MSShapeGroup" cx="458.5" cy="36.5" r="3.5"></circle>
                <circle id="Oval-1182-Copy-25" stroke="#FFFFFF" fill="#EF6C00" sketch:type="MSShapeGroup" cx="619.5" cy="100.5" r="3.5"></circle>
                <circle id="Oval-1182-Copy-33" stroke="#FFFFFF" fill="#EF6C00" sketch:type="MSShapeGroup" cx="598.5" cy="180.5" r="3.5"></circle>
                <circle id="Oval-1182-Copy-4" stroke="#FFFFFF" fill="#EF6C00" sketch:type="MSShapeGroup" cx="439.5" cy="74.5" r="3.5"></circle>
                <circle id="Oval-1182-Copy-17" stroke="#FFFFFF" fill="#EF6C00" sketch:type="MSShapeGroup" cx="286.5" cy="150.5" r="3.5"></circle>
                <circle id="Oval-1182-Copy-13" stroke="#FFFFFF" fill="#EF6C00" sketch:type="MSShapeGroup" cx="551.5" cy="45.5" r="3.5"></circle>
                <circle id="Oval-1182-Copy-20" stroke="#FFFFFF" fill="#EF6C00" sketch:type="MSShapeGroup" cx="574.5" cy="68.5" r="3.5"></circle>
                <circle id="Oval-1182-Copy-8" stroke="#FFFFFF" fill="#EF6C00" sketch:type="MSShapeGroup" cx="742.5" cy="155.5" r="3.5"></circle>
                <circle id="Oval-1182-Copy-7" stroke="#FFFFFF" fill="#EF6C00" sketch:type="MSShapeGroup" cx="542.5" cy="211.5" r="3.5"></circle>
                <circle id="Oval-1182-Copy-11" stroke="#FFFFFF" fill="#EF6C00" sketch:type="MSShapeGroup" cx="439.5" cy="219.5" r="3.5"></circle>
                <path d="M51.5,19 C53.4329966,19 55,17.4329966 55,15.5 C55,13.5670034 53.4329966,12 51.5,12 C49.5670034,12 48,13.5670034 48,15.5 C48,17.4329966 49.5670034,19 51.5,19 Z" id="Oval-1182-Copy-35" stroke="#FFFFFF" fill="#EF6C00" sketch:type="MSShapeGroup"></path>
                <circle id="Oval-1182-Copy-2" stroke="#FFFFFF" fill="#EF6C00" sketch:type="MSShapeGroup" cx="305.5" cy="228.5" r="3.5"></circle>
                <path d="M294.5,7 C296.432997,7 298,5.43299662 298,3.5 C298,1.56700338 296.432997,0 294.5,0 C292.567003,0 291,1.56700338 291,3.5 C291,5.43299662 292.567003,7 294.5,7 Z" id="Oval-1182-Copy-32" stroke="#FFFFFF" fill="#EF6C00" sketch:type="MSShapeGroup"></path>
                <circle id="Oval-1182-Copy-14" stroke="#FFFFFF" fill="#EF6C00" sketch:type="MSShapeGroup" cx="251.5" cy="85.5" r="3.5"></circle>
                <circle id="Oval-1182-Copy-30" stroke="#FFFFFF" fill="#EF6C00" sketch:type="MSShapeGroup" cx="193.5" cy="38.5" r="3.5"></circle>
                <circle id="Oval-1182-Copy-31" stroke="#FFFFFF" fill="#EF6C00" sketch:type="MSShapeGroup" cx="273.5" cy="22.5" r="3.5"></circle>
                <circle id="Oval-1182-Copy-36" stroke="#FFFFFF" fill="#EF6C00" sketch:type="MSShapeGroup" cx="11.5" cy="225.5" r="3.5"></circle>
                <circle id="Oval-1182-Copy" stroke="#FFFFFF" fill="#EF6C00" sketch:type="MSShapeGroup" cx="33.5" cy="187.5" r="3.5"></circle>
                <circle id="Oval-1182-Copy-28" stroke="#FFFFFF" fill="#EF6C00" sketch:type="MSShapeGroup" cx="146.5" cy="178.5" r="3.5"></circle>
                <circle id="Oval-1182-Copy-29" stroke="#FFFFFF" fill="#EF6C00" sketch:type="MSShapeGroup" cx="374.5" cy="259.5" r="3.5"></circle>
                <circle id="Oval-1182-Copy-16" stroke="#FFFFFF" fill="#EF6C00" sketch:type="MSShapeGroup" cx="111.5" cy="95.5" r="3.5"></circle>
                <path d="M4.5,38 C6.43299662,38 8,36.4329966 8,34.5 C8,32.5670034 6.43299662,31 4.5,31 C2.56700338,31 1,32.5670034 1,34.5 C1,36.4329966 2.56700338,38 4.5,38 Z" id="Oval-1182-Copy-34" stroke="#FFFFFF" fill="#EF6C00" sketch:type="MSShapeGroup"></path>
                <circle id="Oval-1182" stroke="#FFFFFF" fill="#EF6C00" sketch:type="MSShapeGroup" cx="44.5" cy="38.5" r="3.5"></circle>
            </g>
            <g id="Group-Copy" sketch:type="MSLayerGroup" transform="translate(426.000000, 158.000000) rotate(-180.000000) translate(-426.000000, -158.000000) translate(76.000000, 40.000000)" stroke-width="0.897435897">
                <g id="Lines" transform="translate(2.692308, 3.589354)" stroke="#FFCB87" stroke-linecap="square" sketch:type="MSShapeGroup">
                    <path d="M7.62820513,198.760456 L27.3717949,165.558935" id="Line"></path>
                    <path d="M0.448717949,170.942966 L7.62820513,198.760456" id="Line"></path>
                    <path d="M482.371795,187.095057 L534.423077,158.380228" id="Line"></path>
                    <path d="M223.012821,73.1330798 L242.75641,16.6007605" id="Line"></path>
                    <path d="M171.858974,30.9581749 L242.75641,16.6007605" id="Line"></path>
                    <path d="M269.679487,201.452471 L349.551282,178.121673" id="Line"></path>
                    <path d="M349.551282,178.121673 L333.397436,230.1673" id="Line"></path>
                    <path d="M128.782051,156.585551 L255.320513,131.460076" id="Line"></path>
                    <path d="M128.782051,157.48289 L349.551282,178.121673" id="Line"></path>
                    <path d="M631.346154,204.144487 L689.679487,180.813688" id="Line"></path>
                    <path d="M642.115385,168.250951 L631.346154,204.144487" id="Line"></path>
                    <path d="M580.192308,79.4144487 L664.551282,137.741445" id="Line"></path>
                    <path d="M580.192308,79.4144487 L553.269231,86.5931559" id="Line"></path>
                    <path d="M349.551282,178.121673 L512.884615,57.878327" id="Line"></path>
                    <path d="M665.448718,137.741445 L689.679487,180.813688" id="Line"></path>
                    <path d="M694.166667,203.247148 L689.679487,179.91635" id="Line"></path>
                    <path d="M614.294872,161.969582 L665.448718,137.741445" id="Line"></path>
                    <path d="M642.115385,168.250951 L664.551282,138.638783" id="Line"></path>
                    <path d="M630.448718,204.144487 L544.294872,178.121673" id="Line"></path>
                    <path d="M391.730769,63.2623574 L446.474359,48.0076046" id="Line"></path>
                    <path d="M512.884615,56.9809886 L584.679487,3.14068441" id="Line"></path>
                    <path d="M171.858974,30.9581749 L223.012821,73.1330798" id="Line"></path>
                    <path d="M97.3717949,82.1064639 L170.961538,30.9581749" id="Line"></path>
                    <path d="M608.012821,71.338403 L584.679487,4.03802281" id="Line"></path>
                    <path d="M0.448717949,170.942966 L28.2692308,164.661597" id="Line"></path>
                    <path d="M36.3461538,30.9581749 L0.448717949,27.3688213" id="Line"></path>
                    <path d="M260.705128,0.448669202 L242.75641,16.6007605" id="Line"></path>
                    <path d="M615.192308,161.969582 L642.115385,168.250951" id="Line"></path>
                    <path d="M580.192308,79.4144487 L512.884615,57.878327" id="Line"></path>
                    <path d="M349.551282,178.121673 L391.730769,193.376426" id="Line"></path>
                    <path d="M544.294872,178.121673 L534.423077,158.380228" id="Line"></path>
                    <path d="M482.371795,187.095057 L544.294872,178.121673" id="Line"></path>
                    <path d="M391.730769,63.2623574 L408.782051,29.1634981" id="Line"></path>
                    <path d="M512.884615,57.878327 L391.730769,64.1596958" id="Line"></path>
                    <path d="M492.24359,37.2395437 L512.884615,56.9809886" id="Line"></path>
                    <path d="M665.448718,138.638783 L608.012821,71.338403" id="Line"></path>
                    <path d="M128.782051,156.585551 L124.294872,216.707224" id="Line"></path>
                    <path d="M269.679487,200.555133 L333.397436,230.1673" id="Line"></path>
                    <path d="M333.397436,230.1673 L391.730769,193.376426" id="Line"></path>
                    <path d="M254.423077,132.357414 L271.474359,201.452471" id="Line"></path>
                    <path d="M128.782051,156.585551 L28.2692308,164.661597" id="Line"></path>
                    <path d="M391.730769,193.376426 L481.474359,187.095057" id="Line"></path>
                    <path d="M254.423077,131.460076 L223.012821,73.1330798" id="Line"></path>
                    <path d="M37.2435897,30.9581749 L97.3717949,82.1064639" id="Line"></path>
                    <path d="M43.525641,10.3193916 L37.2435897,30.0608365" id="Line"></path>
                    <path d="M97.3717949,82.1064639 L128.782051,156.585551" id="Line"></path>
                </g>
                <ellipse id="Oval-1182-Copy-3" stroke="#FFFFFF" fill="#EF6C00" sketch:type="MSShapeGroup" cx="352.24359" cy="181.711027" rx="3.14102564" ry="3.14068441"></ellipse>
                <ellipse id="Oval-1182-Copy-5" stroke="#FFFFFF" fill="#EF6C00" sketch:type="MSShapeGroup" cx="587.371795" cy="7.62737643" rx="3.14102564" ry="3.14068441"></ellipse>
                <ellipse id="Oval-1182-Copy-9" stroke="#FFFFFF" fill="#EF6C00" sketch:type="MSShapeGroup" cx="610.705128" cy="74.9277567" rx="3.14102564" ry="3.14068441"></ellipse>
                <ellipse id="Oval-1182-Copy-19" stroke="#FFFFFF" fill="#EF6C00" sketch:type="MSShapeGroup" cx="696.858974" cy="206.836502" rx="3.14102564" ry="3.14068441"></ellipse>
                <path d="M546.987179,184.851711 C548.72192,184.851711 550.128205,183.445579 550.128205,181.711027 C550.128205,179.976475 548.72192,178.570342 546.987179,178.570342 C545.252439,178.570342 543.846154,179.976475 543.846154,181.711027 C543.846154,183.445579 545.252439,184.851711 546.987179,184.851711 Z" id="Oval-1182-Copy-10" stroke="#FFFFFF" fill="#EF6C00" sketch:type="MSShapeGroup"></path>
                <path d="M617.884615,168.69962 C619.619356,168.69962 621.025641,167.293487 621.025641,165.558935 C621.025641,163.824383 619.619356,162.418251 617.884615,162.418251 C616.149875,162.418251 614.74359,163.824383 614.74359,165.558935 C614.74359,167.293487 616.149875,168.69962 617.884615,168.69962 Z" id="Oval-1182-Copy-23" stroke="#FFFFFF" fill="#EF6C00" sketch:type="MSShapeGroup"></path>
                <path d="M3.14102564,177.673004 C4.8757662,177.673004 6.28205128,176.266871 6.28205128,174.532319 C6.28205128,172.797767 4.8757662,171.391635 3.14102564,171.391635 C1.40628508,171.391635 0,172.797767 0,174.532319 C0,176.266871 1.40628508,177.673004 3.14102564,177.673004 Z" id="Oval-1182-Copy-37" stroke="#FFFFFF" fill="#EF6C00" sketch:type="MSShapeGroup"></path>
                <path d="M644.807692,174.980989 C646.542433,174.980989 647.948718,173.574856 647.948718,171.840304 C647.948718,170.105752 646.542433,168.69962 644.807692,168.69962 C643.072952,168.69962 641.666667,170.105752 641.666667,171.840304 C641.666667,173.574856 643.072952,174.980989 644.807692,174.980989 Z" id="Oval-1182-Copy-24" stroke="#FFFFFF" fill="#EF6C00" sketch:type="MSShapeGroup"></path>
                <path d="M634.038462,210.874525 C635.773202,210.874525 637.179487,209.468392 637.179487,207.73384 C637.179487,205.999288 635.773202,204.593156 634.038462,204.593156 C632.303721,204.593156 630.897436,205.999288 630.897436,207.73384 C630.897436,209.468392 632.303721,210.874525 634.038462,210.874525 Z" id="Oval-1182-Copy-26" stroke="#FFFFFF" fill="#EF6C00" sketch:type="MSShapeGroup"></path>
                <ellipse id="Oval-1182-Copy-22" stroke="#FFFFFF" fill="#EF6C00" sketch:type="MSShapeGroup" cx="582.884615" cy="83.0038023" rx="3.14102564" ry="3.14068441"></ellipse>
                <ellipse id="Oval-1182-Copy-18" stroke="#FFFFFF" fill="#EF6C00" sketch:type="MSShapeGroup" cx="692.371795" cy="184.403042" rx="3.14102564" ry="3.14068441"></ellipse>
                <ellipse id="Oval-1182-Copy-15" stroke="#FFFFFF" fill="#EF6C00" sketch:type="MSShapeGroup" cx="126.987179" cy="220.296578" rx="3.14102564" ry="3.14068441"></ellipse>
                <ellipse id="Oval-1182-Copy-12" stroke="#FFFFFF" fill="#EF6C00" sketch:type="MSShapeGroup" cx="449.166667" cy="51.5969582" rx="3.14102564" ry="3.14068441"></ellipse>
                <ellipse id="Oval-1182-Copy-21" stroke="#FFFFFF" fill="#EF6C00" sketch:type="MSShapeGroup" cx="411.474359" cy="32.7528517" rx="3.14102564" ry="3.14068441"></ellipse>
                <ellipse id="Oval-1182-Copy-25" stroke="#FFFFFF" fill="#EF6C00" sketch:type="MSShapeGroup" cx="555.961538" cy="90.1825095" rx="3.14102564" ry="3.14068441"></ellipse>
                <ellipse id="Oval-1182-Copy-33" stroke="#FFFFFF" fill="#EF6C00" sketch:type="MSShapeGroup" cx="537.115385" cy="161.969582" rx="3.14102564" ry="3.14068441"></ellipse>
                <ellipse id="Oval-1182-Copy-4" stroke="#FFFFFF" fill="#EF6C00" sketch:type="MSShapeGroup" cx="394.423077" cy="66.851711" rx="3.14102564" ry="3.14068441"></ellipse>
                <ellipse id="Oval-1182-Copy-17" stroke="#FFFFFF" fill="#EF6C00" sketch:type="MSShapeGroup" cx="257.115385" cy="135.04943" rx="3.14102564" ry="3.14068441"></ellipse>
                <ellipse id="Oval-1182-Copy-13" stroke="#FFFFFF" fill="#EF6C00" sketch:type="MSShapeGroup" cx="494.935897" cy="40.8288973" rx="3.14102564" ry="3.14068441"></ellipse>
                <ellipse id="Oval-1182-Copy-20" stroke="#FFFFFF" fill="#EF6C00" sketch:type="MSShapeGroup" cx="515.576923" cy="61.4676806" rx="3.14102564" ry="3.14068441"></ellipse>
                <ellipse id="Oval-1182-Copy-8" stroke="#FFFFFF" fill="#EF6C00" sketch:type="MSShapeGroup" cx="666.346154" cy="139.536122" rx="3.14102564" ry="3.14068441"></ellipse>
                <ellipse id="Oval-1182-Copy-7" stroke="#FFFFFF" fill="#EF6C00" sketch:type="MSShapeGroup" cx="486.858974" cy="189.787072" rx="3.14102564" ry="3.14068441"></ellipse>
                <ellipse id="Oval-1182-Copy-11" stroke="#FFFFFF" fill="#EF6C00" sketch:type="MSShapeGroup" cx="394.423077" cy="196.965779" rx="3.14102564" ry="3.14068441"></ellipse>
                <path d="M46.2179487,17.0494297 C47.9526893,17.0494297 49.3589744,15.6432974 49.3589744,13.9087452 C49.3589744,12.1741931 47.9526893,10.7680608 46.2179487,10.7680608 C44.4832082,10.7680608 43.0769231,12.1741931 43.0769231,13.9087452 C43.0769231,15.6432974 44.4832082,17.0494297 46.2179487,17.0494297 Z" id="Oval-1182-Copy-35" stroke="#FFFFFF" fill="#EF6C00" sketch:type="MSShapeGroup"></path>
                <ellipse id="Oval-1182-Copy-2" stroke="#FFFFFF" fill="#EF6C00" sketch:type="MSShapeGroup" cx="274.166667" cy="205.041825" rx="3.14102564" ry="3.14068441"></ellipse>
                <path d="M264.294872,6.28136882 C266.029612,6.28136882 267.435897,4.87523651 267.435897,3.14068441 C267.435897,1.40613231 266.029612,0 264.294872,0 C262.560131,0 261.153846,1.40613231 261.153846,3.14068441 C261.153846,4.87523651 262.560131,6.28136882 264.294872,6.28136882 Z" id="Oval-1182-Copy-32" stroke="#FFFFFF" fill="#EF6C00" sketch:type="MSShapeGroup"></path>
                <ellipse id="Oval-1182-Copy-14" stroke="#FFFFFF" fill="#EF6C00" sketch:type="MSShapeGroup" cx="225.705128" cy="76.7224335" rx="3.14102564" ry="3.14068441"></ellipse>
                <ellipse id="Oval-1182-Copy-30" stroke="#FFFFFF" fill="#EF6C00" sketch:type="MSShapeGroup" cx="173.653846" cy="34.5475285" rx="3.14102564" ry="3.14068441"></ellipse>
                <ellipse id="Oval-1182-Copy-31" stroke="#FFFFFF" fill="#EF6C00" sketch:type="MSShapeGroup" cx="245.448718" cy="20.1901141" rx="3.14102564" ry="3.14068441"></ellipse>
                <ellipse id="Oval-1182-Copy-36" stroke="#FFFFFF" fill="#EF6C00" sketch:type="MSShapeGroup" cx="10.3205128" cy="202.34981" rx="3.14102564" ry="3.14068441"></ellipse>
                <ellipse id="Oval-1182-Copy" stroke="#FFFFFF" fill="#EF6C00" sketch:type="MSShapeGroup" cx="30.0641026" cy="168.250951" rx="3.14102564" ry="3.14068441"></ellipse>
                <ellipse id="Oval-1182-Copy-28" stroke="#FFFFFF" fill="#EF6C00" sketch:type="MSShapeGroup" cx="131.474359" cy="160.174905" rx="3.14102564" ry="3.14068441"></ellipse>
                <ellipse id="Oval-1182-Copy-29" stroke="#FFFFFF" fill="#EF6C00" sketch:type="MSShapeGroup" cx="336.089744" cy="232.859316" rx="3.14102564" ry="3.14068441"></ellipse>
                <ellipse id="Oval-1182-Copy-16" stroke="#FFFFFF" fill="#EF6C00" sketch:type="MSShapeGroup" cx="100.064103" cy="85.6958175" rx="3.14102564" ry="3.14068441"></ellipse>
                <path d="M4.03846154,34.0988593 C5.7732021,34.0988593 7.17948718,32.692727 7.17948718,30.9581749 C7.17948718,29.2236228 5.7732021,27.8174905 4.03846154,27.8174905 C2.30372098,27.8174905 0.897435897,29.2236228 0.897435897,30.9581749 C0.897435897,32.692727 2.30372098,34.0988593 4.03846154,34.0988593 Z" id="Oval-1182-Copy-34" stroke="#FFFFFF" fill="#EF6C00" sketch:type="MSShapeGroup"></path>
                <ellipse id="Oval-1182" stroke="#FFFFFF" fill="#EF6C00" sketch:type="MSShapeGroup" cx="39.9358974" cy="34.5475285" rx="3.14102564" ry="3.14068441"></ellipse>
            </g>
        </g>
    </g>
</svg>